<svg xmlns="http://www.w3.org/2000/svg"
  viewBox="-0.026973068714141846 0.0017764568328857422 34.53649139404297 47.0382194519043">
  <g>
    <g>
      <g>
        <path fill="#fdd77f"
          d="M8.9 46.99l24.55-17.52-17.46-11.4L28.97 6.8 21.68.28.14 18.15 19.3 30.27 2.55 42.32l6.35 4.67z">
        </path>
        <path
          d="M27.76 4.91c0-.13 0-.14 0 0zM27.6 8.73c0 .4 0 .27 0 0zM17.54 4c0-.35-1 .25-1.15 0 .4.41-1.29 1.22-2 1.9v.59c.93-.36 2.68-2 4.26-3.25zM12.31 8.8l2.46-2.31-1.19.74-1.27 1.57zM12.06 7.9a2.32 2.32 0 0 0-.48.3 3.36 3.36 0 0 0 .48-.3z"
          fill="#805d6b"></path>
        <path
          d="M8.54 11.52a29.18 29.18 0 0 1 3.6-2.81 9.29 9.29 0 0 0-1.07.61c.8-.69 1.78-1.75 2.7-2.57-.64.09-1.06.68-1.71 1.16.21-.09.33-.08.11.22C11 8.62 10.75 9.47 9.7 10l.73-.8C10.09 9 9 10.88 8.58 10.34c-.82 1.28 1.2-.27-.04 1.18zM7.56 12.11v-.16c0-.01-.06.17 0 .16zM6.54 12.48c.25-.12.84-.57 1-.53.06-.21.2-.52-.15-.4-.9.7-2.26 1.82-2.19 2.39 1.15-.5 1.05-.94 1.34-1.46zM4.13 15A1.93 1.93 0 0 1 5 13.5c-.61.2-.58.54-1.12.85l-.36.87.37-.4zM5 16.18v.04zM3.44 17.55c.47-.41 1-.9 1.52-1.33a4.75 4.75 0 0 0-1.52 1.33zM5 16.16a4.66 4.66 0 0 0 .87-.92v.12a15.35 15.35 0 0 0 1.19-1.67c-.77 1.03-2.75 2.1-2.06 2.47zM5.75 15.97l.54-.77M2.25 15.85l-1.02.83 1.44-1-.42.17zM3.46 17c-.24.27 1.48-1.25 1.43-1.47-.32.16-.87 1-1.22.86-1.11.82.81-.26-.21.61zM0 18.45l.67.24-.38-1.3c-.04.4-.42-.09-.29 1.06zM6.06 22.85c0-.37.81-.19-.18-.92-.24 0-.61-.21-.65 0-.41-.33-.21-.44-.46-.7-.9-.27-2-1.17-2.7-1.37a2 2 0 0 1 .58.4c1.06.9 2.82 1.63 3.41 2.59zM3 18.09a.32.32 0 0 0 .11-.09C3 18 3 18 3 18.09zM2 18.16c.49-.06 1.28.79 1.6.66 0-.14-.5-.57-.6-.73-.52.31-1.33-.84-1.24.09a10 10 0 0 0 1.24.71z"
          fill="#805d6b"></path>
        <path
          d="M2.27 20.3h.36C1.47 19.88 1.38 19.22 1 19l.14-.09.4-.32.11-.53.16.09-.16-.11-.32-.23-.2-.15a.6.6 0 0 1-.13-.18.66.66 0 0 0-.16-.29v.35l-.1-.06.08 1.31v.3A.92.92 0 0 0 .5 19a1.11 1.11 0 0 1 .41.2c0 .33 0 .43 0 0a9.56 9.56 0 0 0 1.36 1.1zM6.35 21.32L6 20.69l-1.59-.37c1.23.33 2 1.68 2.59 1.2l.38.52-.09-.45c-.29-.24-.53-.46-.72-.64.26.34.33.62-.22.37zM6.34 20.75l.19.19M16.77 29.14c1 .3-.74-.67-.74-.88.56-.33.68.79 1.34.65.34-.28-1.58-1.53-2.21-2.23-.7-.37-.75-.26-1.08-.19 0-.3-.68-.79-.73-1.09-1.56-.6-2-1.58-3.51-2.15v-.13l-.1-.06.05.09a5.88 5.88 0 0 1-1.38-.71c1 .92 1.67 1.91 2.39 2.63l.15.13v.1C10 25.19 9.24 23.48 9 23.88c.5.79 2.15 1.68 2.24 2.07.27 0-.26-.47.39-.19.85.65.63.7 1 1.23l.65.07c-.14.4.82.93 1.83 1.53-1-.91-2.14-1.87-3.4-2.8 2.03.74 3.29 2.3 5.06 3.35z"
          fill="#805d6b"></path>
        <path
          d="M9.82 23.12l.64.4c.37.28-.52-.52-.64-.4zM7.25 21.59a13.29 13.29 0 0 0 1.14.85 7.75 7.75 0 0 0-1.14-.85zM4.9 19.87l1.1.65-.09-.46c-1.12-.86-.64-.11-1.01-.19zM4.9 19.87l-.74-.45a2.48 2.48 0 0 0 .74.45zM11.31 33.5a2.48 2.48 0 0 0 .76-.41c-.13-.09-.37.01-.76.41zM9.84 24.99l-.44-.3M10.14 25.18l-.3-.19M17.58 29.53l.13-.04-.13.03v.01zM7.45 13.18v-.06c-.04.09-.08.15 0 .06zM28.51 28.41a1.85 1.85 0 0 0-.57-.31c.49.51-.45-.14-.73-.2.99.9.61.15 1.3.51zM28.8 28.57l-.29-.16M25.45 26.29l-.06-.06-.3-.18.36.24zM27.28 9.37c0 .22 0 .19 0 0zM19.83 2h-.24M20.15 2.08H20M20.32 2.08h-.17"
          fill="#805d6b"></path>
        <path
          d="M34.13 30.33v-.06c0-.06 0 0 0 0a1.21 1.21 0 0 0 0-1.76h-.09l-.37-.1-.73-.21c0-.19 0-.47-.61-.78.2.17.57.41.45.42L30 26l.17.36c-.74-.77-2.56-1.42-3.26-2.38-.08.1-.73-.21-.77 0-2.49-2.09-5.82-3.52-7.74-5.48.12.27-.16.21-.28.22-.9-.56-.12-.27-.25-.54-.12.08-.39 0-.79-.16l-.18-.09h.05c1-.93 2.46-2.07 3.93-3.23a68.8 68.8 0 0 0 6.39-5.32l.11-.15-.11.07v-.32a2.1 2.1 0 0 1 .32-.25c.82-.52 1.94-.73 1.34-2.79l-1.18-1L26 3.4 23.16.89C22.4.68 22.85-.37 21.1.14l-1.35 1.2a7.1 7.1 0 0 0-.53.48l-1.87 1.77c1.28-1.31 2-.89 2.67-1.51h.3l.11.07.3.29c-.49.41-1 .83-1.4 1.23.51-.19.22.32-.36.86-1 .71.17-.37-.34-.19-.88.12-2.12 2-2.8 2.59.15-.25-2 1.31-.88.12-1.56 1.14-2.21 2.51-3.53 2.95a2.62 2.62 0 0 1-.6 1.13l-.22-.32-.32.63c-1 .82-2 .63-2.78 1.72.17-.18.55-.52.71-.39.13.33-1.72 2-1.06 2l.65-.9c-.09.48 1-.48.88-.12l2.12-2 .24.2-.63.32c-.21 1.08 1-1 1.95-1.19l-.15-.21c2.09-1.44 1-.48 2.71-1.64l.31-.62c0-.12-1.24 1.45-1.46 1.13.88-1 2.33-2.17 3.23-3.34l-.43 1.22c.12-.6 1.27-.64 2.31-1.59l-1.07.61c.37-1 2.23-2 3.34-3.17l.17.16c-.73.72-1.59 1.45-1.22 1.54a8.35 8.35 0 0 0 1.38-1.39l.4.37-.05-.19a27.77 27.77 0 0 1 3.11 2.76 1.52 1.52 0 0 0-.48.61 2.19 2.19 0 0 1 .39-.32c.39-.06-.28.51-.52.78a4.76 4.76 0 0 0-1.76.86l-1.4 1.5c-.1 0-.08-.11-.08-.11-1.38 1.31-3.09 2.52-4.09 3.6 0 .24-.32.75.47 0a6.08 6.08 0 0 1-2.2 1.75l.32-.75-1.47 1.25c-.07-1 .58 8.52.31 4.5h.05l.1.07.2.15.4.29.81.59a18.22 18.22 0 0 0 3.18 2l-.2-.45c1.87 1 3.42 2.46 4.52 2.91-1.06-1.2 1.06.36 1.5.5-1.22-1-3.46-2-3.38-2.09v.09l-2.52-1.33.24-.31c-.6.63-3-2.41-3-1.47-.69-.4-.78-.86-.57-1l-1-.51h-.06v-.26l-.22-3.21.1-.1.12-.13v.35l.21 3 .18.1.91.42a3.45 3.45 0 0 1 1.21 1c.73.21-.33-.72 1.05.08 2 1.86 4.93 3.24 6.32 4.6-.29-.35-.66-.59-.09-.46l.92 1c.94.52 1.66.44 2.18 1.06.36 0-1.47-1.26-2-1.77 1.33-.14 1.63 1.61 2.93 1.66.69-.17-2.44-1.43-1.31-1.46l1.18.91c-.5-1.08-2.2-1.18-2.16-1.93a5.42 5.42 0 0 1 1.9 1.31c.45.14-.49-.79.28-.5.57.69 1.14.54 1.55 1.15l-.48.05c.53.32 1.75 1.32 2.4 1.63-.2.4-1.83-.37-2.4-.78A7.29 7.29 0 0 0 31.39 29l-.86-.76c1.37.91 1.6.07 2.87 1.34-1.24 1-.56-.08-1.08.07-1.31 1.23-.49.38-.19.71-.3.23-.54.41-.77.56-.69-.59-1-1.37-1.45-1l.94.65a.43.43 0 0 1-.18.15h-.17a1.59 1.59 0 0 1-.44-.25 1 1 0 0 0 .41.28c-1 1-1.67 1.92-2.86 3.13l-.29-.14C27.14 34.08 16 42 17 42c-.21.06 2.17-1.64 4.26-3.13v.17c-1.6 1.36-6.37 5-5 3.93.17.45-.79.74-.49 1.07a26.46 26.46 0 0 1-4.23 3 56.88 56.88 0 0 0 9.3-5.49c.31-.33.55-.65 0-.39-.69.74-1.28.77-.82.17.78-.74.1.34 1-.64l-.56.26a5.71 5.71 0 0 0 1.8-2c4.26-2.45 7.88-6.49 11.78-8.34l.11-.15c-.15-.07-.02.03-.02-.13zM19.58 2z"
          fill="#805d6b"></path>
        <path d="M20.07 2.08l.19.13-.09-.1h-.07zM18.27 28.85c-.03-1-.02-.7 0 0z" fill="#805d6b"></path>
        <path
          d="M6.3 45c-1-.58 0 .49-.55.25-.25-.74-1.13-1.2-2-1.69a8.05 8.05 0 0 1-1.23-.79c-.41-1.58.58-.77.83-1 4.37-3.34 9.65-7.37 13.78-10.1l-.25.07a4 4 0 0 1 1-.72 2 2 0 0 0 .27.5l.13.16v-.65l.08.05.14.09h.07v-.59l.06.08.09.12v-.06-.71c.41-.26.42.05.43.36s0 .37.15.43a.33.33 0 0 0 .27 0c.07-2-.07-1.47-.23-1.41.34.45-.12.54-.63.36v-.29h-.16v-.36l-.24.19v-.66l-.11.05-.2.32a3.54 3.54 0 0 0-.63-.43 2.27 2.27 0 0 1 .54.49l-.18.11.2-.09a.46.46 0 0 1 .06.11c-.11.16-.3.39.11.22a2.2 2.2 0 0 1-.75.51 2.13 2.13 0 0 0-.27-.25c-.08 0-.15 0-.11.1a9 9 0 0 0-1.73-1.22l.27.23c.51.44 1 .87 1.53 1.27a6.27 6.27 0 0 0-2.11 1.25c.43-.39.41 0 .21.2a32.82 32.82 0 0 0-3.16 2.16l.14.15a16.58 16.58 0 0 1-2.07 1 51.62 51.62 0 0 0-5.43 3.55c-.91.64-1.81 1.27-2.67 1.83l-.32.2-.16.1h-.08c-1.53.71-.62 3.17 0 3.45l.54.48.94 1c.62.9-1.07-.36-.83 0 3.44 1.65 4.82 1.48 5.12.36l-.48-.24c0 .05.13-.21-.38-.54zM18.84 30.87v0z"
          fill="#805d6b"></path>
        <path d="M19.44 29.51a1.32 1.32 0 0 0-.15-.18c.05.18.1.2.15.18zM18.36 31.75" fill="#805d6b">
        </path>
      </g>
    </g>
  </g>
</svg>